<svg xmlns="http://www.w3.org/2000/svg" width="32" height="32" viewBox="0 0 32 32"><defs><clipPath id="xq9ya"><path fill="#fff" d="M16 0c8.837 0 16 7.163 16 16s-7.163 16-16 16S0 24.837 0 16 7.163 0 16 0z"/></clipPath></defs><g><g><path fill="none" stroke="#393a3b" stroke-miterlimit="20" stroke-width="2" d="M16 0v0c8.837 0 16 7.163 16 16v0c0 8.837-7.163 16-16 16v0C7.163 32 0 24.837 0 16v0C0 7.163 7.163 0 16 0z" clip-path="url(&quot;#xq9ya&quot;)"/></g><g><path fill="#838d8f" d="M18.49 13.886h-1.87V12.64c0-.467.305-.577.52-.577h1.32v-2.055L16.641 10c-2.017 0-2.476 1.533-2.476 2.515v1.37H13v2.12h1.166V22h2.454v-5.996h1.655z"/></g></g></svg>