<svg xmlns="http://www.w3.org/2000/svg" width="32" height="32" viewBox="0 0 32 32"><defs><clipPath id="j3f1a"><path fill="#fff" d="M16 0c8.837 0 16 7.163 16 16s-7.163 16-16 16S0 24.837 0 16 7.163 0 16 0z"/></clipPath></defs><g><g><path fill="none" stroke="#393a3b" stroke-miterlimit="20" stroke-width="2" d="M16 0v0c8.837 0 16 7.163 16 16v0c0 8.837-7.163 16-16 16v0C7.163 32 0 24.837 0 16v0C0 7.163 7.163 0 16 0z" clip-path="url(&quot;#j3f1a&quot;)"/></g><g><path fill="#838d8f" d="M12 18.121a.883.883 0 0 0-.865.874c0 .47.394.86.865.86.472 0 .88-.39.88-.86a.882.882 0 0 0-.88-.874zm-.865-4.005v1.755c1.818 0 3.987 2.177 3.987 3.984h1.767c0-2.904-2.837-5.74-5.754-5.74zm0-3.006v1.754c3.768.013 6.98 3.24 6.994 6.99h1.768c0-4.737-4.008-8.731-8.762-8.744z"/></g></g></svg>