<svg xmlns="http://www.w3.org/2000/svg" width="13" height="10" viewBox="0 0 13 10"><g><g><path fill="#fff" d="M10.437 1.96c-.008-.004-.016-.013-.024-.021a2.273 2.273 0 0 0-1.69-.627l-.02-.046c.005-.004.009-.004.013-.004.587-.132.934-.269 1.038-.417.036-.12-.008-.186-.136-.203a3.376 3.376 0 0 0-.81.195c.307-.195.427-.33.359-.401-.304.008-.63.161-.975.463.128-.215.176-.33.144-.352a2.79 2.79 0 0 0-.43.36c-.26.284-.468.549-.628.789l-.008.02a6.992 6.992 0 0 0-.87 1.991l-.064.05-.012.011A3.242 3.242 0 0 0 5.426 3c-.42-.268-.91-.525-1.478-.772a12.635 12.635 0 0 0-1.88-.776c-.004.698.343 1.255 1.034 1.66v.012a2.261 2.261 0 0 0-.707.103c.044.649.511 1.095 1.398 1.342l-.005.013c-.347-.02-.634.1-.858.347.291.562.807.83 1.554.81a1.05 1.05 0 0 0-.34.247c-.136.14-.18.306-.136.496.16.284.447.416.87.396l.024.03-.011.011c-.731.744-1.613 1.078-2.648 1.008l-.016.009C1.597 7.93.922 7.634.191 7.039.926 8.08 1.9 8.831 3.106 9.303a7.015 7.015 0 0 0 4.14.098h.024c1.338-.38 2.472-1.16 3.406-2.342.431-.619.703-1.209.81-1.775.7.024 1.203-.173 1.514-.594l-.008-.013c-.232.082-.687.058-1.362-.078v-.075c0-.003 0-.003.005 0 .738-.082 1.174-.317 1.313-.706a2.098 2.098 0 0 1-1.525.017c-.092-.686-.42-1.31-.986-1.875z"/></g></g></svg>