<svg xmlns="http://www.w3.org/2000/svg" width="13" height="10" viewBox="0 0 13 10"><g><g><path fill="#838d8f" d="M10.437 1.96a2.272 2.272 0 0 0-1.713-.648l-.02-.046c.004-.004.008-.004.012-.004.587-.133.934-.27 1.038-.417.036-.12-.008-.186-.136-.202a3.365 3.365 0 0 0-.81.194c.307-.194.427-.33.359-.401-.304.008-.63.161-.975.463.128-.215.176-.33.144-.352a2.79 2.79 0 0 0-.43.36c-.26.284-.468.55-.628.789l-.008.02a6.996 6.996 0 0 0-.87 1.99l-.064.05-.012.013a3.247 3.247 0 0 0-.898-.77c-.42-.267-.91-.523-1.478-.77a12.638 12.638 0 0 0-1.88-.777c-.004.698.343 1.255 1.034 1.66v.012a2.24 2.24 0 0 0-.707.104c.044.648.511 1.094 1.398 1.341l-.005.013c-.347-.02-.634.1-.858.347.291.562.807.83 1.553.81a1.054 1.054 0 0 0-.339.247c-.136.14-.18.306-.136.496.16.285.447.416.87.396l.024.03a.572.572 0 0 0-.011.011c-.731.744-1.614 1.078-2.648 1.008l-.016.008C1.597 7.931.922 7.634.191 7.04.926 8.08 1.9 8.831 3.106 9.302a7.013 7.013 0 0 0 4.14.1h.024c1.338-.38 2.472-1.162 3.406-2.342.431-.62.703-1.21.81-1.776.7.025 1.203-.173 1.514-.594l-.008-.013c-.231.082-.687.058-1.362-.078v-.075c0-.004 0-.004.005 0 .738-.082 1.173-.317 1.313-.706a2.093 2.093 0 0 1-1.525.017c-.092-.686-.42-1.31-.986-1.875z"/></g></g></svg>